<svg xmlns="http://www.w3.org/2000/svg" viewBox="0 0 1200 900" width="1200" height="900" font-family="Inter, ui-sans-serif, system-ui, sans-serif">
  <defs>
    <linearGradient id="bg" x1="0%" y1="0%" x2="100%" y2="100%">
      <stop offset="0%" stop-color="#0a0e1a"/>
      <stop offset="100%" stop-color="#161c2e"/>
    </linearGradient>
    <linearGradient id="accent" x1="0%" y1="0%" x2="100%" y2="0%">
      <stop offset="0%" stop-color="#00aaff"/>
      <stop offset="100%" stop-color="#0047b3"/>
    </linearGradient>
    <linearGradient id="ensemble" x1="0%" y1="0%" x2="0%" y2="100%">
      <stop offset="0%" stop-color="#1a2540"/>
      <stop offset="100%" stop-color="#0f1525"/>
    </linearGradient>
    <marker id="arrow" viewBox="0 0 10 10" refX="9" refY="5" markerWidth="8" markerHeight="8" orient="auto-start-reverse">
      <path d="M0 0 L10 5 L0 10 z" fill="#00aaff"/>
    </marker>
    <marker id="arrow-soft" viewBox="0 0 10 10" refX="9" refY="5" markerWidth="6" markerHeight="6" orient="auto-start-reverse">
      <path d="M0 0 L10 5 L0 10 z" fill="#94a3b8"/>
    </marker>
  </defs>

  <rect width="1200" height="900" fill="url(#bg)"/>

  <g opacity="0.05" stroke="#00aaff" stroke-width="1" fill="none">
    <path d="M0 0 H1200 M0 100 H1200 M0 200 H1200 M0 300 H1200 M0 400 H1200 M0 500 H1200 M0 600 H1200 M0 700 H1200 M0 800 H1200 M0 900 H1200"/>
    <path d="M0 0 V900 M100 0 V900 M200 0 V900 M300 0 V900 M400 0 V900 M500 0 V900 M600 0 V900 M700 0 V900 M800 0 V900 M900 0 V900 M1000 0 V900 M1100 0 V900 M1200 0 V900"/>
  </g>

  <g font-family="ui-monospace, Menlo, Consolas, monospace">
    <text x="60" y="55" fill="#00aaff" font-size="14" letter-spacing="3" opacity="0.8">SYSTEM_ARCHITECTURE // CATHODEX</text>
    <text x="60" y="78" fill="#94a3b8" font-size="12" letter-spacing="1">AI-powered cathode material screening · GNN ensemble inference pipeline</text>
  </g>

  <g transform="translate(60, 130)">
    <rect width="220" height="84" rx="6" fill="#161c2e" stroke="#2a3548" stroke-width="1"/>
    <text x="110" y="38" text-anchor="middle" fill="#ffffff" font-size="18" font-weight="500">User / Chemist</text>
    <text x="110" y="62" text-anchor="middle" fill="#94a3b8" font-size="12" font-family="ui-monospace, Menlo, Consolas, monospace">browser</text>
  </g>

  <g transform="translate(440, 130)">
    <rect width="280" height="84" rx="6" fill="#161c2e" stroke="#2a3548" stroke-width="1"/>
    <text x="140" y="38" text-anchor="middle" fill="#ffffff" font-size="18" font-weight="500">Web Frontend</text>
    <text x="140" y="62" text-anchor="middle" fill="#94a3b8" font-size="12" font-family="ui-monospace, Menlo, Consolas, monospace">Next.js · Vercel</text>
  </g>

  <g transform="translate(880, 130)">
    <rect width="260" height="84" rx="6" fill="#161c2e" stroke="#2a3548" stroke-width="1"/>
    <text x="130" y="38" text-anchor="middle" fill="#ffffff" font-size="18" font-weight="500">Inference API</text>
    <text x="130" y="62" text-anchor="middle" fill="#94a3b8" font-size="12" font-family="ui-monospace, Menlo, Consolas, monospace">FastAPI · Render</text>
  </g>

  <g stroke="#00aaff" stroke-width="2" fill="none">
    <line x1="280" y1="172" x2="436" y2="172" marker-end="url(#arrow)"/>
    <line x1="720" y1="172" x2="876" y2="172" marker-end="url(#arrow)"/>
  </g>
  <g font-family="ui-monospace, Menlo, Consolas, monospace" fill="#00aaff" font-size="11" letter-spacing="2">
    <text x="358" y="162" text-anchor="middle">HTTPS</text>
    <text x="798" y="162" text-anchor="middle">JSON</text>
  </g>

  <line x1="1010" y1="214" x2="1010" y2="270" stroke="#00aaff" stroke-width="2" marker-end="url(#arrow)"/>

  <g transform="translate(60, 270)">
    <rect width="1080" height="500" rx="10" fill="url(#ensemble)" stroke="#1f2a44" stroke-width="1.5" stroke-dasharray="0"/>
    <text x="20" y="32" font-family="ui-monospace, Menlo, Consolas, monospace" fill="#00aaff" font-size="12" letter-spacing="3" opacity="0.8">INFERENCE_ENGINE</text>

    <g transform="translate(390, 60)">
      <rect width="300" height="78" rx="6" fill="#1a2540" stroke="#3a4a6b" stroke-width="1"/>
      <text x="150" y="34" text-anchor="middle" fill="#ffffff" font-size="17" font-weight="500">Pymatgen Parser</text>
      <text x="150" y="58" text-anchor="middle" fill="#94a3b8" font-size="12" font-family="ui-monospace, Menlo, Consolas, monospace">structure → graph</text>
    </g>

    <line x1="540" y1="138" x2="540" y2="180" stroke="#00aaff" stroke-width="2" marker-end="url(#arrow)"/>

    <g font-family="ui-monospace, Menlo, Consolas, monospace" fill="#94a3b8" font-size="11" letter-spacing="2">
      <text x="540" y="200" text-anchor="middle">MACE_ENSEMBLE · 5 MEMBERS</text>
    </g>

    <g transform="translate(60, 220)" font-family="Inter, ui-sans-serif, sans-serif">
      <g>
        <rect x="0" y="0" width="180" height="84" rx="6" fill="#161c2e" stroke="#2a3548"/>
        <text x="90" y="34" text-anchor="middle" fill="#ffffff" font-size="15" font-weight="500">MACE-1</text>
        <text x="90" y="58" text-anchor="middle" fill="#94a3b8" font-size="11" font-family="ui-monospace, monospace">GNN model</text>
      </g>
      <g transform="translate(195, 0)">
        <rect width="180" height="84" rx="6" fill="#161c2e" stroke="#2a3548"/>
        <text x="90" y="34" text-anchor="middle" fill="#ffffff" font-size="15" font-weight="500">MACE-2</text>
        <text x="90" y="58" text-anchor="middle" fill="#94a3b8" font-size="11" font-family="ui-monospace, monospace">GNN model</text>
      </g>
      <g transform="translate(390, 0)">
        <rect width="180" height="84" rx="6" fill="#161c2e" stroke="#2a3548"/>
        <text x="90" y="34" text-anchor="middle" fill="#ffffff" font-size="15" font-weight="500">MACE-3</text>
        <text x="90" y="58" text-anchor="middle" fill="#94a3b8" font-size="11" font-family="ui-monospace, monospace">GNN model</text>
      </g>
      <g transform="translate(585, 0)">
        <rect width="180" height="84" rx="6" fill="#161c2e" stroke="#2a3548"/>
        <text x="90" y="34" text-anchor="middle" fill="#ffffff" font-size="15" font-weight="500">MACE-4</text>
        <text x="90" y="58" text-anchor="middle" fill="#94a3b8" font-size="11" font-family="ui-monospace, monospace">GNN model</text>
      </g>
      <g transform="translate(780, 0)">
        <rect width="180" height="84" rx="6" fill="#161c2e" stroke="#2a3548"/>
        <text x="90" y="34" text-anchor="middle" fill="#ffffff" font-size="15" font-weight="500">MACE-5</text>
        <text x="90" y="58" text-anchor="middle" fill="#94a3b8" font-size="11" font-family="ui-monospace, monospace">GNN model</text>
      </g>
    </g>

    <g stroke="#94a3b8" stroke-width="1.4" fill="none" opacity="0.6">
      <path d="M150 304 C 150 360, 540 360, 540 400" marker-end="url(#arrow-soft)"/>
      <path d="M345 304 C 345 360, 540 360, 540 400" marker-end="url(#arrow-soft)"/>
      <path d="M540 304 V400" marker-end="url(#arrow-soft)"/>
      <path d="M735 304 C 735 360, 540 360, 540 400" marker-end="url(#arrow-soft)"/>
      <path d="M930 304 C 930 360, 540 360, 540 400" marker-end="url(#arrow-soft)"/>
    </g>

    <g transform="translate(290, 400)">
      <rect width="500" height="78" rx="6" fill="#1a2540" stroke="#3a4a6b" stroke-width="1"/>
      <text x="250" y="34" text-anchor="middle" fill="#ffffff" font-size="17" font-weight="500">Statistical Aggregation</text>
      <text x="250" y="58" text-anchor="middle" fill="#94a3b8" font-size="12" font-family="ui-monospace, Menlo, Consolas, monospace">q10 · q50 · q90 + conformal prediction</text>
    </g>
  </g>

  <line x1="600" y1="770" x2="600" y2="810" stroke="#00aaff" stroke-width="2" marker-end="url(#arrow)"/>

  <g font-family="Inter, ui-sans-serif, sans-serif">
    <g transform="translate(160, 810)">
      <rect width="240" height="64" rx="6" fill="#0f2a1a" stroke="#22c55e" stroke-width="1.5"/>
      <text x="120" y="40" text-anchor="middle" fill="#22c55e" font-size="20" font-weight="600" letter-spacing="2">KEEP</text>
    </g>
    <g transform="translate(480, 810)">
      <rect width="240" height="64" rx="6" fill="#2a230f" stroke="#eab308" stroke-width="1.5"/>
      <text x="120" y="40" text-anchor="middle" fill="#eab308" font-size="20" font-weight="600" letter-spacing="2">MAYBE</text>
    </g>
    <g transform="translate(800, 810)">
      <rect width="240" height="64" rx="6" fill="#2a0f12" stroke="#ef4444" stroke-width="1.5"/>
      <text x="120" y="40" text-anchor="middle" fill="#ef4444" font-size="20" font-weight="600" letter-spacing="2">KILL</text>
    </g>
  </g>

  <rect x="0" y="894" width="1200" height="6" fill="url(#accent)"/>
</svg>
