<svg xmlns="http://www.w3.org/2000/svg" viewBox="0 0 1200 630" width="1200" height="630">
  <defs>
    <linearGradient id="bg" x1="0%" y1="0%" x2="100%" y2="100%">
      <stop offset="0%" stop-color="#0a0e1a" />
      <stop offset="100%" stop-color="#161c2e" />
    </linearGradient>
    <linearGradient id="accent" x1="0%" y1="0%" x2="100%" y2="0%">
      <stop offset="0%" stop-color="#00aaff" />
      <stop offset="100%" stop-color="#0047b3" />
    </linearGradient>
    <linearGradient id="logoGrad" x1="0%" y1="0%" x2="100%" y2="100%">
      <stop offset="0%" stop-color="#00aaff" />
      <stop offset="100%" stop-color="#0047b3" />
    </linearGradient>
  </defs>

  <rect width="1200" height="630" fill="url(#bg)" />

  <g opacity="0.06" stroke="#00aaff" stroke-width="1" fill="none">
    <path d="M0 100 H1200 M0 200 H1200 M0 300 H1200 M0 400 H1200 M0 500 H1200" />
    <path d="M100 0 V630 M300 0 V630 M500 0 V630 M700 0 V630 M900 0 V630 M1100 0 V630" />
  </g>

  <g transform="translate(96, 200)">
    <g transform="scale(0.6)">
      <path d="M0 0 V272" stroke="#ffffff" stroke-width="64" stroke-linecap="square" />
      <path d="M0 136 L192 0" stroke="#ffffff" stroke-width="64" stroke-linecap="square" />
      <path d="M64 96 L208 272" stroke="url(#logoGrad)" stroke-width="64" stroke-linecap="square" />
    </g>
  </g>

  <g transform="translate(280, 220)" font-family="Inter, ui-sans-serif, system-ui, sans-serif" fill="#ffffff">
    <text font-size="42" font-weight="300" letter-spacing="14" opacity="0.7">KERNEL GUARD</text>
    <text y="100" font-size="78" font-weight="600" letter-spacing="-2">Secure &amp; Scalable</text>
    <text y="180" font-size="78" font-weight="300" letter-spacing="-2" fill="url(#accent)">Web Engineering</text>
  </g>

  <g transform="translate(96, 540)" font-family="ui-monospace, Menlo, Consolas, monospace" fill="#94a3b8" font-size="20" letter-spacing="2">
    <text>kernelguard.net</text>
  </g>

  <g transform="translate(96, 90)" font-family="ui-monospace, Menlo, Consolas, monospace" fill="#00aaff" font-size="18" letter-spacing="3" opacity="0.85">
    <text>SYSTEMS_SECURE // V2.4.1</text>
  </g>

  <rect x="0" y="624" width="1200" height="6" fill="url(#accent)" />
</svg>
